<?xml version="1.0" standalone="no"?>
<!DOCTYPE svg PUBLIC "-//W3C//DTD SVG 20010904//EN"
 "http://www.w3.org/TR/2001/REC-SVG-20010904/DTD/svg10.dtd">
<svg version="1.0" xmlns="http://www.w3.org/2000/svg"
 width="848.000000pt" height="848.000000pt" viewBox="0 0 848.000000 848.000000"
 preserveAspectRatio="xMidYMid meet">
<metadata>
Created by potrace 1.14, written by Peter Selinger 2001-2017
</metadata>
<g transform="translate(0.000000,848.000000) scale(0.100000,-0.100000)"
fill="#000000" stroke="none">
<path d="M2739 7243 c-1 -69 -1 -159 1 -168 1 -5 2 -14 1 -20 -1 -5 -2 -216
-1 -467 0 -316 -4 -459 -11 -464 -9 -5 -31 -6 -104 -2 -5 0 -59 0 -120 -1 -60
0 -117 0 -125 0 -8 0 -152 0 -320 0 -168 0 -312 0 -320 0 -172 1 -645 0 -675
-1 -22 -1 -128 -2 -235 -3 l-195 -2 0 -145 0 -145 -120 -60 c-66 -33 -136 -71
-155 -85 -54 -38 -153 -122 -174 -149 -11 -13 -27 -31 -36 -40 -21 -21 -74
-106 -93 -151 -61 -143 -61 -140 -41 -905 3 -110 5 -207 5 -215 -2 -61 0 -144
4 -150 2 -4 510 -6 1129 -6 747 1 1122 -2 1118 -9 -3 -5 -34 -44 -68 -86 l-63
-75 -1051 0 c-579 1 -1055 -1 -1059 -4 -5 -3 -8 -14 -9 -25 -3 -69 -1 -1431 2
-1480 7 -110 42 -210 110 -315 68 -104 296 -295 398 -334 16 -6 28 -15 29 -21
0 -5 1 -66 2 -135 l2 -125 400 0 c283 -1 406 -4 421 -13 12 -6 23 -9 26 -7 2
3 20 0 39 -5 19 -6 54 -13 78 -16 25 -3 47 -7 51 -9 3 -2 24 -6 46 -9 22 -4
49 -8 59 -10 11 -2 40 -7 65 -11 25 -3 59 -9 75 -11 43 -8 96 -15 125 -19 14
-1 61 -8 105 -14 44 -6 107 -13 140 -17 33 -3 74 -7 90 -9 17 -2 66 -7 110
-10 44 -4 94 -8 110 -10 17 -2 68 -6 115 -9 47 -4 112 -9 145 -11 33 -3 116
-7 185 -11 69 -3 152 -7 185 -9 162 -11 640 -19 1080 -19 522 1 782 7 1210 29
73 3 142 1 175 -5 69 -14 103 -19 160 -25 25 -3 74 -8 110 -12 86 -10 503 -10
607 0 81 7 208 23 254 32 13 3 39 7 59 10 28 4 178 38 264 60 73 18 244 79
356 127 164 71 409 207 487 272 16 12 53 36 83 52 242 127 414 305 472 489 5
17 12 39 16 50 3 11 8 373 9 805 l4 785 -988 -1 -988 0 -65 53 c-36 30 -91 67
-122 82 -52 26 -54 29 -30 32 15 2 514 4 1110 3 l1082 -1 0 541 c-1 577 -4
620 -52 723 -42 93 -112 184 -194 253 -64 54 -77 64 -107 79 -15 8 -27 18 -27
23 0 4 -9 8 -20 8 -11 0 -20 4 -20 8 0 7 -58 41 -80 47 -3 1 -36 16 -73 33
-120 56 -319 118 -532 167 -5 2 -26 5 -45 9 -73 12 -95 17 -108 21 -7 2 -40 7
-75 11 -34 3 -66 8 -70 11 -8 5 -18 6 -127 18 -36 4 -78 8 -95 10 -16 3 -61 7
-100 10 -38 3 -88 7 -110 10 -96 10 -341 18 -600 19 l-280 1 -3 50 c-1 28 -3
55 -3 60 1 6 1 42 2 80 0 39 0 75 -1 80 -1 6 -1 15 0 20 2 13 2 87 0 100 -1 6
-1 15 0 20 2 13 2 87 0 100 -1 6 -1 15 0 20 5 22 2 124 -5 134 -3 6 -3 11 2
11 9 0 8 331 0 354 -3 8 -3 17 0 20 5 5 6 43 4 131 l-1 25 -1510 0 -1510 0 -1
-27z m2717 -727 l-1 -451 -580 0 -580 0 0 25 0 25 -115 2 c-63 1 -203 2 -310
2 -107 0 -204 0 -215 0 -11 0 -110 0 -220 0 -110 0 -227 0 -260 0 -33 0 -76 0
-96 0 l-37 1 2 125 c0 69 -3 125 -7 125 -5 0 -5 5 -1 11 6 10 9 119 4 144 -1
6 -1 15 0 20 3 14 3 188 0 200 -1 6 -1 15 0 20 1 6 1 46 1 90 0 44 2 88 5 97
5 16 87 17 1208 16 l1204 0 -2 -452z m-1593 -2501 c-3 -27 -7 -66 -8 -85 l-1
-35 -482 -1 c-265 0 -482 1 -482 2 0 1 6 9 13 16 7 7 35 42 62 77 28 35 58 66
67 70 9 3 201 6 427 6 l411 0 -7 -50z m1667 44 c0 -3 -23 -18 -51 -33 -28 -16
-78 -51 -112 -79 l-62 -52 -375 -2 c-206 0 -381 -2 -387 -2 -8 -1 -13 -15 -13
-36 0 -19 -4 -35 -8 -35 -12 0 -8 58 4 70 6 6 9 44 7 90 l-4 79 38 3 c70 6
963 3 963 -3z"/>
</g>
</svg>
